<svg width="32" height="32" viewBox="0 0 32 32" fill="none" xmlns="http://www.w3.org/2000/svg">
<path opacity="0.4" d="M22.8204 20.4775C22.4594 20.8856 22.0807 21.2886 21.6846 21.6846C15.9569 27.4123 8.78105 29.5229 5.65686 26.3987C3.51499 24.2568 3.83352 20.2106 6.09121 16.0322M9.18614 11.6336C9.56176 11.2065 9.95688 10.7849 10.3709 10.3709C16.0986 4.64321 23.2745 2.53266 26.3987 5.65686C28.542 7.8002 28.2216 11.8505 25.9596 16.0319" stroke="#64B45C" stroke-width="2" stroke-linecap="round" stroke-linejoin="round"/>
<path d="M21.6846 10.3709C27.4123 16.0986 29.5229 23.2745 26.3987 26.3987C23.2745 29.5229 16.0986 27.4123 10.3709 21.6846C4.64321 15.9569 2.53266 8.78105 5.65686 5.65686C8.78105 2.53266 15.9569 4.64321 21.6846 10.3709Z" stroke="#64B45C" stroke-width="2" stroke-linecap="round" stroke-linejoin="round"/>
<path d="M16 17.3332C16.7364 17.3332 17.3333 16.7363 17.3333 15.9999C17.3333 15.2635 16.7364 14.6666 16 14.6666C15.2636 14.6666 14.6667 15.2635 14.6667 15.9999C14.6667 16.7363 15.2636 17.3332 16 17.3332Z" stroke="#64B45C" stroke-width="2" stroke-linecap="round" stroke-linejoin="round"/>
</svg>
