<svg xmlns="http://www.w3.org/2000/svg" xmlns:xlink="http://www.w3.org/1999/xlink" viewBox="0 0 480 455.6" shape-rendering="geometricPrecision" xmlns:v="https://vecta.io/nano"><style><![CDATA[#P{animation:eXvlHjAJSik594_ts__ts 5000ms linear infinite normal forwards}#Q{animation:eXvlHjAJSik605_ts__ts 5000ms linear infinite normal forwards}#R{animation:eXvlHjAJSik616_ts__ts 5000ms linear infinite normal forwards}#S{animation:eXvlHjAJSik624_ts__ts 5000ms linear infinite normal forwards}#T{animation:eXvlHjAJSik632_ts__ts 5000ms linear infinite normal forwards}#U{animation:eXvlHjAJSik640_ts__ts 5000ms linear infinite normal forwards}#V{animation:eXvlHjAJSik648_ts__ts 5000ms linear infinite normal forwards}#W{animation:eXvlHjAJSik655_ts__ts 5000ms linear infinite normal forwards}#X{animation:eXvlHjAJSik680_ts__ts 5000ms linear infinite normal forwards}#Y{animation:eXvlHjAJSik683_ts__ts 5000ms linear infinite normal forwards}#Z{animation:eXvlHjAJSik694_c_o 5000ms linear infinite normal forwards}#a{animation:eXvlHjAJSik695_ts__ts 5000ms linear infinite normal forwards}#b{animation:eXvlHjAJSik696_to__to 5000ms linear infinite normal forwards}#c{animation:eXvlHjAJSik696_c_o 5000ms linear infinite normal forwards}#d{animation:eXvlHjAJSik697_to__to 5000ms linear infinite normal forwards}#e{animation:eXvlHjAJSik697_c_o 5000ms linear infinite normal forwards}#f{animation:eXvlHjAJSik698_to__to 5000ms linear infinite normal forwards}#g{animation:eXvlHjAJSik698_c_o 5000ms linear infinite normal forwards}#h{animation:eXvlHjAJSik699_to__to 5000ms linear infinite normal forwards}#i{animation:eXvlHjAJSik699_c_o 5000ms linear infinite normal forwards}#j{animation:eXvlHjAJSik700_c_o 5000ms linear infinite normal forwards}#k{animation:eXvlHjAJSik701_ts__ts 5000ms linear infinite normal forwards}#l{animation:eXvlHjAJSik702_to__to 5000ms linear infinite normal forwards}#m{animation:eXvlHjAJSik702_c_o 5000ms linear infinite normal forwards}#n{animation:eXvlHjAJSik703_to__to 5000ms linear infinite normal forwards}#o{animation:eXvlHjAJSik703_c_o 5000ms linear infinite normal forwards}#p{animation:eXvlHjAJSik704_to__to 5000ms linear infinite normal forwards}#q{animation:eXvlHjAJSik704_c_o 5000ms linear infinite normal forwards}#r{animation:eXvlHjAJSik705_to__to 5000ms linear infinite normal forwards}#s{animation:eXvlHjAJSik705_c_o 5000ms linear infinite normal forwards}#t{animation:eXvlHjAJSik706_c_o 5000ms linear infinite normal forwards}#u{animation:eXvlHjAJSik707_ts__ts 5000ms linear infinite normal forwards}#v{animation:eXvlHjAJSik708_to__to 5000ms linear infinite normal forwards}#w{animation:eXvlHjAJSik708_c_o 5000ms linear infinite normal forwards}#x{animation:eXvlHjAJSik709_to__to 5000ms linear infinite normal forwards}#y{animation:eXvlHjAJSik709_c_o 5000ms linear infinite normal forwards}#z{animation:eXvlHjAJSik710_to__to 5000ms linear infinite normal forwards}#AA{animation:eXvlHjAJSik710_c_o 5000ms linear infinite normal forwards}#AB{animation:eXvlHjAJSik711_to__to 5000ms linear infinite normal forwards}#AC{animation:eXvlHjAJSik711_c_o 5000ms linear infinite normal forwards}#AD{animation:eXvlHjAJSik712_c_o 5000ms linear infinite normal forwards}#AE{animation:eXvlHjAJSik713_ts__ts 5000ms linear infinite normal forwards}#AF{animation:eXvlHjAJSik714_to__to 5000ms linear infinite normal forwards}#AG{animation:eXvlHjAJSik714_c_o 5000ms linear infinite normal forwards}#AH{animation:eXvlHjAJSik715_to__to 5000ms linear infinite normal forwards}#AI{animation:eXvlHjAJSik715_c_o 5000ms linear infinite normal forwards}#AJ{animation:eXvlHjAJSik716_to__to 5000ms linear infinite normal forwards}#AK{animation:eXvlHjAJSik716_c_o 5000ms linear infinite normal forwards}#AL{animation:eXvlHjAJSik717_to__to 5000ms linear infinite normal forwards}#AM{animation:eXvlHjAJSik717_c_o 5000ms linear infinite normal forwards}#AN{animation:eXvlHjAJSik718_c_o 5000ms linear infinite normal forwards}#AO{animation:eXvlHjAJSik719_ts__ts 5000ms linear infinite normal forwards}#AP{animation:eXvlHjAJSik720_to__to 5000ms linear infinite normal forwards}#AQ{animation:eXvlHjAJSik720_c_o 5000ms linear infinite normal forwards}#AR{animation:eXvlHjAJSik721_to__to 5000ms linear infinite normal forwards}#AS{animation:eXvlHjAJSik721_c_o 5000ms linear infinite normal forwards}#AT{animation:eXvlHjAJSik722_to__to 5000ms linear infinite normal forwards}#AU{animation:eXvlHjAJSik722_c_o 5000ms linear infinite normal forwards}#AV{animation:eXvlHjAJSik723_to__to 5000ms linear infinite normal forwards}#AW{animation:eXvlHjAJSik723_c_o 5000ms linear infinite normal forwards}@keyframes eXvlHjAJSik594_ts__ts{0%{transform:translate(100.049999px,225.250008px) scale(0,0)}10%{transform:translate(100.049999px,225.250008px) scale(0,0)}16%{transform:translate(100.049999px,225.250008px) scale(1,1)}20%{transform:translate(100.049999px,225.250008px) scale(0.9,0.9)}24%{transform:translate(100.049999px,225.250008px) scale(1,1)}42%{transform:translate(100.049999px,225.250008px) scale(1,1)}46%{transform:translate(100.049999px,225.250008px) scale(0,1)}76%{transform:translate(100.049999px,225.250008px) scale(0,1)}78%{transform:translate(100.049999px,225.250008px) scale(0,0)}84%{transform:translate(100.049999px,225.250008px) scale(1,1)}88%{transform:translate(100.049999px,225.250008px) scale(0.9,0.9)}92%{transform:translate(100.049999px,225.250008px) scale(1,1)}100%{transform:translate(100.049999px,225.250008px) scale(1,1)}} @keyframes eXvlHjAJSik605_ts__ts{0%{transform:translate(385.799988px,105.549999px) scale(0,0)}6%{transform:translate(385.799988px,105.549999px) scale(0,0)}12%{transform:translate(385.799988px,105.549999px) scale(1,1)}16%{transform:translate(385.799988px,105.549999px) scale(0.9,0.9)}20%{transform:translate(385.799988px,105.549999px) scale(1,1)}32%{transform:translate(385.799988px,105.549999px) scale(1,1)}36%{transform:translate(385.799988px,105.549999px) scale(0,1)}58%{transform:translate(385.799988px,105.549999px) scale(0,1)}60%{transform:translate(385.799988px,105.549999px) scale(0,0)}66%{transform:translate(385.799988px,105.549999px) scale(1,1)}70%{transform:translate(385.799988px,105.549999px) scale(0.9,0.9)}74%{transform:translate(385.799988px,105.549999px) scale(1,1)}100%{transform:translate(385.799988px,105.549999px) scale(1,1)}} @keyframes eXvlHjAJSik616_ts__ts{0%{transform:translate(242.949997px,350.316376px) scale(0,0)}14%{transform:translate(242.949997px,350.316376px) scale(0,0)}20%{transform:translate(242.949997px,350.316376px) scale(1,1)}24%{transform:translate(242.949997px,350.316376px) scale(0.9,0.9)}28%{transform:translate(242.949997px,350.316376px) scale(1,1)}54%{transform:translate(242.949997px,350.316376px) scale(1,1)}58%{transform:translate(242.949997px,350.316376px) scale(0,1)}74%{transform:translate(242.949997px,350.316376px) scale(0,1)}78%{transform:translate(242.949997px,350.316376px) scale(0,0)}84%{transform:translate(242.949997px,350.316376px) scale(1,1)}88%{transform:translate(242.949997px,350.316376px) scale(0.9,0.9)}92%{transform:translate(242.949997px,350.316376px) scale(1,1)}100%{transform:translate(242.949997px,350.316376px) scale(1,1)}} @keyframes eXvlHjAJSik624_ts__ts{0%{transform:translate(101.349998px,103.616364px) scale(0,0)}6%{transform:translate(101.349998px,103.616364px) scale(1,1)}10%{transform:translate(101.349998px,103.616364px) scale(0.9,0.9)}14%{transform:translate(101.349998px,103.616364px) scale(1,1)}30%{transform:translate(101.349998px,103.616364px) scale(1,1)}34%{transform:translate(101.349998px,103.616364px) scale(0,1)}54%{transform:translate(101.349998px,103.616364px) scale(0,1)}58%{transform:translate(101.349998px,103.616364px) scale(0,0)}64%{transform:translate(101.349998px,103.616364px) scale(1,1)}68%{transform:translate(101.349998px,103.616364px) scale(0.9,0.9)}72%{transform:translate(101.349998px,103.616364px) scale(1,1)}100%{transform:translate(101.349998px,103.616364px) scale(1,1)}} @keyframes eXvlHjAJSik632_ts__ts{0%{transform:translate(101.349998px,347.953522px) scale(0,0)}20%{transform:translate(101.349998px,347.953522px) scale(0,0)}26%{transform:translate(101.349998px,347.953522px) scale(1,1)}30%{transform:translate(101.349998px,347.953522px) scale(0.9,0.9)}34%{transform:translate(101.349998px,347.953522px) scale(1,1)}36%{transform:translate(101.349998px,347.953522px) scale(0,1)}56%{transform:translate(101.349998px,347.953522px) scale(0,1)}58%{transform:translate(101.349998px,347.953522px) scale(0,0)}64%{transform:translate(101.349998px,347.953522px) scale(1,1)}68%{transform:translate(101.349998px,347.953522px) scale(0.9,0.9)}72%{transform:translate(101.349998px,347.953522px) scale(1,1)}100%{transform:translate(101.349998px,347.953522px) scale(1,1)}} @keyframes eXvlHjAJSik640_ts__ts{0%{transform:translate(243.25px,103.603512px) scale(0,0)}4%{transform:translate(243.25px,103.603512px) scale(0,0)}10%{transform:translate(243.25px,103.603512px) scale(1,1)}14%{transform:translate(243.25px,103.603512px) scale(0.9,0.9)}18%{transform:translate(243.25px,103.603512px) scale(1,1)}50%{transform:translate(243.25px,103.603512px) scale(1,1)}54%{transform:translate(243.25px,103.603512px) scale(0,1)}78%{transform:translate(243.25px,103.603512px) scale(0,1)}82%{transform:translate(243.25px,103.603512px) scale(0,0)}88%{transform:translate(243.25px,103.603512px) scale(1,1)}92%{transform:translate(243.25px,103.603512px) scale(0.9,0.9)}96%{transform:translate(243.25px,103.603512px) scale(1,1)}100%{transform:translate(243.25px,103.603512px) scale(1,1)}} @keyframes eXvlHjAJSik648_ts__ts{0%{transform:translate(385px,228.849998px) scale(0,0)}12%{transform:translate(385px,228.849998px) scale(0,0)}18%{transform:translate(385px,228.849998px) scale(1,1)}22%{transform:translate(385px,228.849998px) scale(0.9,0.9)}26%{transform:translate(385px,228.849998px) scale(1,1)}46%{transform:translate(385px,228.849998px) scale(1,1)}50%{transform:translate(385px,228.849998px) scale(0,1)}72%{transform:translate(385px,228.849998px) scale(0,1)}74%{transform:translate(385px,228.849998px) scale(0,0)}80%{transform:translate(385px,228.849998px) scale(1,1)}84%{transform:translate(385px,228.849998px) scale(0.9,0.9)}88%{transform:translate(385px,228.849998px) scale(1,1)}100%{transform:translate(385px,228.849998px) scale(1,1)}} @keyframes eXvlHjAJSik655_ts__ts{0%{transform:translate(386.199997px,350.800018px) scale(0,0)}14%{transform:translate(386.199997px,350.800018px) scale(0,0)}20%{transform:translate(386.199997px,350.800018px) scale(1,1)}24%{transform:translate(386.199997px,350.800018px) scale(0.9,0.9)}28%{transform:translate(386.199997px,350.800018px) scale(1,1)}38%{transform:translate(386.199997px,350.800018px) scale(1,1)}42%{transform:translate(386.199997px,350.800018px) scale(0,1)}60%{transform:translate(386.199997px,350.800018px) scale(0,1)}62%{transform:translate(386.199997px,350.800018px) scale(0,0)}68%{transform:translate(386.199997px,350.800018px) scale(1,1)}72%{transform:translate(386.199997px,350.800018px) scale(0.9,0.9)}76%{transform:translate(386.199997px,350.800018px) scale(1,1)}100%{transform:translate(386.199997px,350.800018px) scale(1,1)}} @keyframes eXvlHjAJSik680_ts__ts{0%{transform:translate(244px,101.774101px) scale(0,0)}53.8%{transform:translate(244px,101.774101px) scale(0,0)}57.8%{transform:translate(244px,101.774101px) scale(1,1)}61.8%{transform:translate(244px,101.774101px) scale(0.9,0.9)}65.8%{transform:translate(244px,101.774101px) scale(1,1)}78%{transform:translate(244px,101.774101px) scale(1.2,1.2)}80%{transform:translate(244px,101.774101px) scale(0,0)}100%{transform:translate(244px,101.774101px) scale(0,0)}} @keyframes eXvlHjAJSik683_ts__ts{0%{transform:translate(101px,227.774101px) scale(0,0)}53.8%{transform:translate(101px,227.774101px) scale(0,0)}57.8%{transform:translate(101px,227.774101px) scale(1,1)}61.8%{transform:translate(101px,227.774101px) scale(0.9,0.9)}65.8%{transform:translate(101px,227.774101px) scale(1,1)}78%{transform:translate(101px,227.774101px) scale(1.2,1.2)}80%{transform:translate(101px,227.774101px) scale(0,0)}100%{transform:translate(101px,227.774101px) scale(0,0)}} @keyframes eXvlHjAJSik689_ts__ts{0%{transform:translate(208px,42.8px) scale(0,0)}36%{transform:translate(208px,42.8px) scale(0,0)}48%{transform:translate(208px,42.8px) scale(0.32845,0.296247)}100%{transform:translate(208px,42.8px) scale(0.32845,0.296247)}} @keyframes eXvlHjAJSik690_to__to{0%{transform:translate(204.937581px,42.789531px)}38%{transform:translate(204.937581px,42.789531px)}46%{transform:translate(198.456216px,36.811912px)}100%{transform:translate(198.456216px,36.811912px)}} @keyframes eXvlHjAJSik691_to__to{0%{transform:translate(205.979335px,43.221815px)}38%{transform:translate(205.979335px,43.221815px)}46%{transform:translate(215.637863px,34.314497px)}100%{transform:translate(215.637863px,34.314497px)}} @keyframes eXvlHjAJSik692_to__to{0%{transform:translate(206.480656px,43.527985px)}38%{transform:translate(206.480656px,43.527985px)}46%{transform:translate(211.428362px,48.861832px)}100%{transform:translate(211.428362px,48.861832px)}} @keyframes eXvlHjAJSik693_to__to{0%{transform:translate(205.454555px,43.45808px)}38%{transform:translate(205.454555px,43.45808px)}46%{transform:translate(198.97319px,48.140548px)}100%{transform:translate(198.97319px,48.140548px)}} @keyframes eXvlHjAJSik694_c_o{0%{opacity:1}58%{opacity:1}60%{opacity:0}100%{opacity:0}} @keyframes eXvlHjAJSik695_ts__ts{0%{transform:translate(208px,42.8px) scale(0,0)}36%{transform:translate(208px,42.8px) scale(0,0)}48%{transform:translate(208px,42.8px) scale(0.32845,0.296247)}100%{transform:translate(208px,42.8px) scale(0.32845,0.296247)}} @keyframes eXvlHjAJSik696_to__to{0%{transform:translate(204.937581px,42.789531px)}38%{transform:translate(204.937581px,42.789531px)}46%{transform:translate(198.456216px,36.811912px)}100%{transform:translate(198.456216px,36.811912px)}} @keyframes eXvlHjAJSik696_c_o{0%{opacity:0}36%{opacity:0}38%{opacity:1}42%{opacity:1}44%{opacity:0}100%{opacity:0}} @keyframes eXvlHjAJSik697_to__to{0%{transform:translate(205.979335px,43.221815px)}38%{transform:translate(205.979335px,43.221815px)}46%{transform:translate(215.637863px,34.314497px)}100%{transform:translate(215.637863px,34.314497px)}} @keyframes eXvlHjAJSik697_c_o{0%{opacity:0}36%{opacity:0}38%{opacity:1}42%{opacity:1}44%{opacity:0}100%{opacity:0}} @keyframes eXvlHjAJSik698_to__to{0%{transform:translate(206.480656px,43.527985px)}38%{transform:translate(206.480656px,43.527985px)}46%{transform:translate(211.428362px,48.861832px)}100%{transform:translate(211.428362px,48.861832px)}} @keyframes eXvlHjAJSik698_c_o{0%{opacity:0}36%{opacity:0}38%{opacity:1}42%{opacity:1}44%{opacity:0}100%{opacity:0}} @keyframes eXvlHjAJSik699_to__to{0%{transform:translate(205.454555px,43.45808px)}38%{transform:translate(205.454555px,43.45808px)}46%{transform:translate(198.97319px,48.140548px)}100%{transform:translate(198.97319px,48.140548px)}} @keyframes eXvlHjAJSik699_c_o{0%{opacity:0}36%{opacity:0}38%{opacity:1}42%{opacity:1}44%{opacity:0}100%{opacity:0}} @keyframes eXvlHjAJSik700_c_o{0%{opacity:1}58%{opacity:1}60%{opacity:0}100%{opacity:0}} @keyframes eXvlHjAJSik701_ts__ts{0%{transform:translate(208px,42.8px) scale(0,0)}36%{transform:translate(208px,42.8px) scale(0,0)}48%{transform:translate(208px,42.8px) scale(0.32845,0.296247)}100%{transform:translate(208px,42.8px) scale(0.32845,0.296247)}} @keyframes eXvlHjAJSik702_to__to{0%{transform:translate(204.937581px,42.789531px)}38%{transform:translate(204.937581px,42.789531px)}46%{transform:translate(198.456216px,36.811912px)}100%{transform:translate(198.456216px,36.811912px)}} @keyframes eXvlHjAJSik702_c_o{0%{opacity:0}36%{opacity:0}38%{opacity:1}42%{opacity:1}44%{opacity:0}100%{opacity:0}} @keyframes eXvlHjAJSik703_to__to{0%{transform:translate(205.979335px,43.221815px)}38%{transform:translate(205.979335px,43.221815px)}46%{transform:translate(215.637863px,34.314497px)}100%{transform:translate(215.637863px,34.314497px)}} @keyframes eXvlHjAJSik703_c_o{0%{opacity:0}36%{opacity:0}38%{opacity:1}42%{opacity:1}44%{opacity:0}100%{opacity:0}} @keyframes eXvlHjAJSik704_to__to{0%{transform:translate(206.480656px,43.527985px)}38%{transform:translate(206.480656px,43.527985px)}46%{transform:translate(211.428362px,48.861832px)}100%{transform:translate(211.428362px,48.861832px)}} @keyframes eXvlHjAJSik704_c_o{0%{opacity:0}36%{opacity:0}38%{opacity:1}42%{opacity:1}44%{opacity:0}100%{opacity:0}} @keyframes eXvlHjAJSik705_to__to{0%{transform:translate(205.454555px,43.45808px)}38%{transform:translate(205.454555px,43.45808px)}46%{transform:translate(198.97319px,48.140548px)}100%{transform:translate(198.97319px,48.140548px)}} @keyframes eXvlHjAJSik705_c_o{0%{opacity:0}36%{opacity:0}38%{opacity:1}42%{opacity:1}44%{opacity:0}100%{opacity:0}} @keyframes eXvlHjAJSik706_c_o{0%{opacity:1}58%{opacity:1}60%{opacity:0}100%{opacity:0}} @keyframes eXvlHjAJSik707_ts__ts{0%{transform:translate(208px,42.8px) scale(0,0)}36%{transform:translate(208px,42.8px) scale(0,0)}48%{transform:translate(208px,42.8px) scale(0.32845,0.296247)}100%{transform:translate(208px,42.8px) scale(0.32845,0.296247)}} @keyframes eXvlHjAJSik708_to__to{0%{transform:translate(204.937581px,42.789531px)}38%{transform:translate(204.937581px,42.789531px)}46%{transform:translate(198.456216px,36.811912px)}100%{transform:translate(198.456216px,36.811912px)}} @keyframes eXvlHjAJSik708_c_o{0%{opacity:0}36%{opacity:0}38%{opacity:1}42%{opacity:1}44%{opacity:0}100%{opacity:0}} @keyframes eXvlHjAJSik709_to__to{0%{transform:translate(205.979335px,43.221815px)}38%{transform:translate(205.979335px,43.221815px)}46%{transform:translate(215.637863px,34.314497px)}100%{transform:translate(215.637863px,34.314497px)}} @keyframes eXvlHjAJSik709_c_o{0%{opacity:0}36%{opacity:0}38%{opacity:1}42%{opacity:1}44%{opacity:0}100%{opacity:0}} @keyframes eXvlHjAJSik710_to__to{0%{transform:translate(206.480656px,43.527985px)}38%{transform:translate(206.480656px,43.527985px)}46%{transform:translate(211.428362px,48.861832px)}100%{transform:translate(211.428362px,48.861832px)}} @keyframes eXvlHjAJSik710_c_o{0%{opacity:0}36%{opacity:0}38%{opacity:1}42%{opacity:1}44%{opacity:0}100%{opacity:0}} @keyframes eXvlHjAJSik711_to__to{0%{transform:translate(205.454555px,43.45808px)}38%{transform:translate(205.454555px,43.45808px)}46%{transform:translate(198.97319px,48.140548px)}100%{transform:translate(198.97319px,48.140548px)}} @keyframes eXvlHjAJSik711_c_o{0%{opacity:0}36%{opacity:0}38%{opacity:1}42%{opacity:1}44%{opacity:0}100%{opacity:0}} @keyframes eXvlHjAJSik712_c_o{0%{opacity:1}72%{opacity:1}74%{opacity:0}100%{opacity:0}} @keyframes eXvlHjAJSik713_ts__ts{0%{transform:translate(208px,42.8px) scale(0,0)}54%{transform:translate(208px,42.8px) scale(0,0)}66%{transform:translate(208px,42.8px) scale(0.32845,0.296247)}100%{transform:translate(208px,42.8px) scale(0.32845,0.296247)}} @keyframes eXvlHjAJSik714_to__to{0%{transform:translate(204.937581px,42.789531px)}56%{transform:translate(204.937581px,42.789531px)}64%{transform:translate(198.456216px,36.811912px)}100%{transform:translate(198.456216px,36.811912px)}} @keyframes eXvlHjAJSik714_c_o{0%{opacity:0}54%{opacity:0}56%{opacity:1}60%{opacity:1}62%{opacity:0}100%{opacity:0}} @keyframes eXvlHjAJSik715_to__to{0%{transform:translate(205.979335px,43.221815px)}56%{transform:translate(205.979335px,43.221815px)}64%{transform:translate(215.637863px,34.314497px)}100%{transform:translate(215.637863px,34.314497px)}} @keyframes eXvlHjAJSik715_c_o{0%{opacity:0}54%{opacity:0}56%{opacity:1}60%{opacity:1}62%{opacity:0}100%{opacity:0}} @keyframes eXvlHjAJSik716_to__to{0%{transform:translate(206.480656px,43.527985px)}56%{transform:translate(206.480656px,43.527985px)}64%{transform:translate(211.428362px,48.861832px)}100%{transform:translate(211.428362px,48.861832px)}} @keyframes eXvlHjAJSik716_c_o{0%{opacity:0}54%{opacity:0}56%{opacity:1}60%{opacity:1}62%{opacity:0}100%{opacity:0}} @keyframes eXvlHjAJSik717_to__to{0%{transform:translate(205.454555px,43.45808px)}56%{transform:translate(205.454555px,43.45808px)}64%{transform:translate(198.97319px,48.140548px)}100%{transform:translate(198.97319px,48.140548px)}} @keyframes eXvlHjAJSik717_c_o{0%{opacity:0}54%{opacity:0}56%{opacity:1}60%{opacity:1}62%{opacity:0}100%{opacity:0}} @keyframes eXvlHjAJSik718_c_o{0%{opacity:1}72%{opacity:1}74%{opacity:0}100%{opacity:0}} @keyframes eXvlHjAJSik719_ts__ts{0%{transform:translate(208px,42.8px) scale(0,0)}54%{transform:translate(208px,42.8px) scale(0,0)}66%{transform:translate(208px,42.8px) scale(0.32845,0.296247)}100%{transform:translate(208px,42.8px) scale(0.32845,0.296247)}} @keyframes eXvlHjAJSik720_to__to{0%{transform:translate(204.937581px,42.789531px)}56%{transform:translate(204.937581px,42.789531px)}64%{transform:translate(198.456216px,36.811912px)}100%{transform:translate(198.456216px,36.811912px)}} @keyframes eXvlHjAJSik720_c_o{0%{opacity:0}54%{opacity:0}56%{opacity:1}60%{opacity:1}62%{opacity:0}100%{opacity:0}} @keyframes eXvlHjAJSik721_to__to{0%{transform:translate(205.979335px,43.221815px)}56%{transform:translate(205.979335px,43.221815px)}64%{transform:translate(215.637863px,34.314497px)}100%{transform:translate(215.637863px,34.314497px)}} @keyframes eXvlHjAJSik721_c_o{0%{opacity:0}54%{opacity:0}56%{opacity:1}60%{opacity:1}62%{opacity:0}100%{opacity:0}} @keyframes eXvlHjAJSik722_to__to{0%{transform:translate(206.480656px,43.527985px)}56%{transform:translate(206.480656px,43.527985px)}64%{transform:translate(211.428362px,48.861832px)}100%{transform:translate(211.428362px,48.861832px)}} @keyframes eXvlHjAJSik722_c_o{0%{opacity:0}54%{opacity:0}56%{opacity:1}60%{opacity:1}62%{opacity:0}100%{opacity:0}} @keyframes eXvlHjAJSik723_to__to{0%{transform:translate(205.454555px,43.45808px)}56%{transform:translate(205.454555px,43.45808px)}64%{transform:translate(198.97319px,48.140548px)}100%{transform:translate(198.97319px,48.140548px)}} @keyframes eXvlHjAJSik723_c_o{0%{opacity:0}54%{opacity:0}56%{opacity:1}60%{opacity:1}62%{opacity:0}100%{opacity:0}}.B{fill:none}.C{stroke-linecap:round}.D{stroke-width:2}.E{stroke-miterlimit:10}.F{stroke-linejoin:round}.G{stroke:#004d40}.H{stroke:#000}.I{stroke-opacity:.03}.J{opacity:0}.K{stroke-width:2.5}.L{stroke:#006fb9}.M{stroke:#009b3e}.N{stroke:#ffad00}.O{stroke:#f80011}.P{stroke-opacity:.04}.Q{fill:#f8f3e7}.R{stroke-width:7}.S{fill:#e42527}.T{fill:#f9b21d}.U{fill:#226db4}.V{stroke-width:4}.W{stroke-miterlimit:8}]]></style><defs><filter id="A" x="-150%" width="400%" y="-150%" height="400%"><feGaussianBlur stdDeviation="30,30"/></filter><path id="B" d="M314.7,309.3l-35.6,20.5-35.6-20.5v-41.1l35.6-20.5l35.6,20.5v41.1Z"/><path id="C" d="M314.7,186.2l-35.6,20.5-35.6-20.5v-41.1l35.6-20.5l35.6,20.5v41.1Z"/><path id="D" d="M456.9 309.3l-35.6 20.5v41.1l35.6 20.5 23.1-13.3v-55.5z"/><path id="E" d="M305.9,262.3c0,1.8-1,3.4-2.5,4.3l-59,34c-1.5.9-3.5.9-5,0l-59-34c-1.5-.9-2.5-2.5-2.5-4.3v-68.1c0-1.8,1-3.4,2.5-4.3l59-34c1.5-.9,3.4-.9,5,0l59,34c1.5.9,2.5,2.5,2.5,4.3v68.1Z"/><path id="F" d="M303.6,267.1c1.7-1,2.8-2.8,2.8-4.8v-68.1c0-2-1-3.8-2.8-4.8l-59-34c-1.7-1-3.8-1-5.5,0l-59,34c-1.7,1-2.8,2.8-2.8,4.8v68.1c0,2,1,3.8,2.8,4.8l59,34c1.7,1,3.8,1,5.5,0l59-34Z"/><path id="G" d="M241.7,270.7c-.6,0-1.1-.3-1.4-.8-.5-.8-.2-1.8.6-2.3l34.7-20v-40.1c0-.9.8-1.7,1.7-1.7s1.7.7,1.7,1.7v41c0,.6-.3,1.1-.8,1.4l-35.5,20.5c-.4.2-.7.3-1,.3Z"/><path id="H" d="M241.7,270.7c-.3,0-.6-.1-.8-.2L205.4,250c-.5-.3-.8-.9-.8-1.4v-41c0-.9.7-1.7,1.7-1.7.9,0,1.7.7,1.7,1.7v40.1l34.7,20c.8.5,1.1,1.5.6,2.3-.5.4-1,.7-1.6.7Z"/><path id="I" d="M277.2,209.2c-.3,0-.6-.1-.8-.2l-34.7-20L207,209c-.8.5-1.8.2-2.3-.6s-.2-1.8.6-2.3l35.5-20.5c.5-.3,1.1-.3,1.7,0L278,206.1c.8.5,1.1,1.5.6,2.3-.2.5-.8.8-1.4.8Z"/><path id="J" d="M241.7,246.1c-.6,0-1.1-.3-1.4-.8-.5-.8-.2-1.8.6-2.3l13.4-7.7v-15.5c0-.9.8-1.7,1.7-1.7s1.7.8,1.7,1.7v16.4c0,.6-.3,1.1-.8,1.4l-14.2,8.2c-.4.2-.7.3-1,.3Z"/><path id="K" d="M241.7,246.1c-.3,0-.6-.1-.8-.2l-14.2-8.2c-.5-.3-.8-.9-.8-1.4v-16.4c0-.9.8-1.7,1.7-1.7s1.7.8,1.7,1.7v15.4l13.4,7.7c.8.5,1.1,1.5.6,2.3-.5.5-1,.8-1.6.8Z"/><path id="L" d="M255.9,221.5c-.3,0-.6-.1-.8-.2l-13.4-7.7-13.4,7.7c-.8.5-1.8.2-2.3-.6s-.2-1.8.6-2.3l14.2-8.2c.5-.3,1.1-.3,1.7,0l14.2,8.2c.8.5,1.1,1.5.6,2.3-.3.5-.8.8-1.4.8Z"/><path id="M" d="M241.7,229.7c-.3,0-.6-.1-.8-.2L205.4,209c-.8-.5-1.1-1.5-.6-2.3s1.5-1.1,2.3-.6l35.5,20.5c.8.5,1.1,1.5.6,2.3-.4.5-.9.8-1.5.8Z"/><path id="N" d="M241.7,229.7c-.6,0-1.1-.3-1.4-.8-.5-.8-.2-1.8.6-2.3l35.5-20.5c.8-.5,1.8-.2,2.3.6s.2,1.8-.6,2.3l-35.5,20.5c-.3.1-.6.2-.9.2Z"/><path id="O" d="M241.7,270.7c-.9,0-1.7-.8-1.7-1.7v-41c0-.9.8-1.7,1.7-1.7s1.7.8,1.7,1.7v41c0,.9-.8,1.7-1.7,1.7Z"/></defs><g class="Q"><path d="M0 445.6V10.1C0 4.6 4.5.1 10 .1h460c5.5 0 10 4.5 10 10v435.5c0 5.5-4.5 10-10 10H10c-5.5 0-10-4.5-10-10z"/><g class="D E G I"><path d="M137 370.9l-35.6 20.5-35.6-20.5v-41.1l35.6-20.5 35.6 20.5v41.1zm0-123.2l-35.6 20.5-35.6-20.5v-41.1l35.6-20.5 35.6 20.5v41.1z"/><path d="M101.4 186.2l-35.6 20.5-35.6-20.5v-41.1l35.6-20.5 35.6 20.5v41.1z"/><path d="M137 124.6l-35.6 20.5-35.6-20.5V83.5L101.4 63 137 83.5v41.1z"/><path d="M101.4 63L65.8 83.5 30.2 63V21.9L65.8 1.4l35.6 20.5V63h0zm71 369.5L137 453l-35.6-20.5v-41.1l35.6-20.5 35.4 20.5v41.1z"/></g></g><path d="M101.4,429.6c0,1.8-1,3.4-2.5,4.3L68.3,451.5c-1.5.9-3.5.9-5,0L32.7,433.9c-1.5-.9-2.5-2.5-2.5-4.3v-35.3c0-1.8,1-3.4,2.5-4.3l30.6-17.6c1.5-.9,3.5-.9,5,0L98.9,390c1.5.9,2.5,2.5,2.5,4.3v35.3v0Z" class="B G P"/><path d="M172.4,309.3L137,329.8l-35.6-20.5v-41.1L137,247.7l35.4,20.5v41.1Z" class="D E G I Q"/><path d="M101.4,306.4c0,1.8-1,3.4-2.5,4.3L68.3,328.3c-1.5.9-3.5.9-5,0L32.7,310.8c-1.5-.9-2.5-2.5-2.5-4.3v-35.3c0-1.8,1-3.4,2.5-4.3l30.6-17.6c1.5-.9,3.5-.9,5,0l30.6,17.6c1.5.9,2.5,2.5,2.5,4.3v35.2v0Z" class="B G P"/><g class="D E Q G I"><path d="M208 124.6l-35.6 20.5-35.4-20.5V83.5L172.4 63 208 83.5v41.1zm35.6 307.9L208 453l-35.6-20.5v-41.1l35.6-20.5 35.6 20.5v41.1z"/><path d="M279.2,370.9l-35.6,20.5L208,370.9v-41.1l35.6-20.5l35.6,20.5v41.1Z"/><path d="M243.6,309.3L208,329.8l-35.6-20.5v-41.1L208,247.7l35.6,20.5v41.1Z"/><path d="M208 370.9l-35.6 20.5-35.4-20.5v-41.1l35.4-20.5 35.6 20.5v41.1zm-.4-122.7L172 268.7l-35.6-20.5v-41.1l35.6-20.5 35.6 20.5v41.1zm72 0L244 268.7l-35.6-20.5v-41.1l35.6-20.5 35.6 20.5v41.1zm-.4-123.6l-35.6 20.5-35.6-20.5V83.5L243.6 63l35.6 20.5v41.1z"/></g><path d="M172.4,183.3c0,1.8-.9,3.4-2.5,4.3l-30.4,17.6c-1.5.9-3.5.9-5,0l-30.6-17.6c-1.5-.9-2.5-2.5-2.5-4.3v-35.3c0-1.8,1-3.4,2.5-4.3l30.6-17.6c1.5-.9,3.5-.9,5,0l30.4,17.6c1.5.9,2.5,2.5,2.5,4.3v35.3Z" class="B G P"/><g class="D E Q G I"><path d="M243.6 63L208 83.5 172.4 63V21.9L208 1.4l35.6 20.5V63zm71.1 369.5L279.1 453l-35.6-20.5v-41.1l35.6-20.5 35.6 20.5v41.1zm35.5-61.6l-35.4 20.5-35.6-20.5v-41.1l35.6-20.5 35.4 20.5v41.1z"/><use xlink:href="#B"/><path d="M350.2,247.7l-35.4,20.5-35.6-20.5v-41.1l35.6-20.5l35.4,20.5v41.1Z"/><use xlink:href="#C"/><path d="M350.2 124.6l-35.4 20.5-35.6-20.5V83.5L314.8 63l35.4 20.5v41.1h0zm35.6 307.9L350.2 453l-35.4-20.5v-41.1l35.4-20.5 35.6 20.5v41.1h0zm0-123.2l-35.6 20.5-35.4-20.5v-41.1l35.4-20.5 35.6 20.5v41.1z"/><path d="M385.8,186.2l-35.6,20.5-35.4-20.5v-41.1l35.4-20.5l35.6,20.5v41.1Z"/></g><path d="M172.4,60.1c0,1.8-.9,3.4-2.5,4.3L139.5,82c-1.5.9-3.5.9-5,0L103.9,64.4c-1.5-.9-2.5-2.5-2.5-4.3v-35.3c0-1.8,1-3.4,2.5-4.3L134.5,2.9c1.5-.9,3.5-.9,5,0l30.4,17.6c1.5.9,2.5,2.5,2.5,4.3v35.3Z" class="B G P"/><g class="D E Q G I"><path d="M456.9,432.5L421.3,453l-35.6-20.5v-41.1l35.6-20.5l35.6,20.5v41.1Z"/><use xlink:href="#D"/><use xlink:href="#B" x="142.2"/><use xlink:href="#C" x="142.2"/></g><path d="M421.4 368c0 1.8-1 3.4-2.5 4.3l-30.6 17.6a4.97 4.97 0 0 1-5 0l-30.6-17.6c-1.5-.9-2.5-2.5-2.5-4.3v-35.3c0-1.8 1-3.4 2.5-4.3l30.6-17.6a4.97 4.97 0 0 1 5 0l30.6 17.6c1.5.9 2.5 2.5 2.5 4.3V368zm0-123.1c0 1.8-1 3.4-2.5 4.3l-30.6 17.6a4.97 4.97 0 0 1-5 0l-30.6-17.6c-1.5-.9-2.5-2.5-2.5-4.3v-35.3c0-1.8 1-3.4 2.5-4.3l30.6-17.6a4.97 4.97 0 0 1 5 0l30.6 17.6c1.5.9 2.5 2.5 2.5 4.3v35.3z" class="B G P"/><g class="D E Q G I"><path d="M456.9 63l-35.6 20.5L385.7 63V21.9l35.6-20.5 35.6 20.5V63h0z"/><path d="M385.8 63l-35.6 20.5L314.7 63V21.9l35.4-20.5 35.6 20.5.1 41.1h0z"/></g><path d="M314.7 60.1c0 1.8-1 3.4-2.5 4.3L281.6 82a4.97 4.97 0 0 1-5 0L246 64.4c-1.5-.9-2.5-2.5-2.5-4.3V24.8c0-1.8 1-3.4 2.5-4.3l30.6-17.6a4.97 4.97 0 0 1 5 0l30.6 17.6c1.5.9 2.5 2.5 2.5 4.3v35.3zm106.7 61.6c0 1.8-1 3.4-2.5 4.3l-30.6 17.6a4.97 4.97 0 0 1-5 0L352.7 126c-1.5-.9-2.5-2.5-2.5-4.3V86.4c0-1.8 1-3.4 2.5-4.3l30.6-17.6a4.97 4.97 0 0 1 5 0l30.6 17.6c1.5.9 2.5 2.5 2.5 4.3v35.3h0z" class="B G P"/><g class="D E Q G I"><path d="M456.9 391.4v41.1l23.1 13.3v-67.7z"/><use xlink:href="#D" y="-123.2"/><path d="M456.9 268.2v41.1l23.1 13.3v-67.7zM30.2 145.1L0 127.7v75.9l30.2-17.4z"/><path d="M30.3 186.1L0 203.5v47.2l30.2 17.5 35.6-20.5h.1v-41.1z"/><path d="M30.2 268.2L0 250.8v45.8 1.2 28.9l30.2-17.4z"/><path d="M30.3 309.3L0 326.7v11.6 27.5 1.4 6.7l30.2 17.5 35.6-20.5h.1v-41.1z"/><path d="M30.2 391.4L0 374v39 1.2 28.9l.3 3.2 29.9-13.8zm0-369.5L1.2 5.7.8 79.9 30.2 63zm426.7 0V63L480 76.3l-1-67.7z"/></g><g opacity=".8" filter="url(#A)"><use xlink:href="#E" fill="#ffd730"/><use xlink:href="#F" class="B G P"/><use xlink:href="#G" class="S"/><use xlink:href="#H" class="T"/><use xlink:href="#I" class="U"/><use xlink:href="#J" class="S"/><use xlink:href="#K" class="T"/><use xlink:href="#L" class="U"/><g fill="#089949"><use xlink:href="#M"/><use xlink:href="#N"/><use xlink:href="#O"/></g></g><use xlink:href="#E" fill="#ffd730"/><use xlink:href="#F" class="B G P"/><use xlink:href="#G" class="S"/><use xlink:href="#H" class="T"/><use xlink:href="#I" class="U"/><use xlink:href="#J" class="S"/><use xlink:href="#K" class="T"/><use xlink:href="#L" class="U"/><g fill="#089949"><use xlink:href="#M"/><use xlink:href="#N"/><use xlink:href="#O"/></g><g id="P" transform="matrix(0 0 0 0 100.049999 225.250008)" class="B D E F"><g transform="translate(-100.05 -225.25)"><g><path d="M92.7,216.7h-6c-.4,0-.6-.3-.6-.6v-6c0-.4.3-.6.6-.6h6c.4,0,.6.3.6.6v6c.1.3-.2.6-.6.6Z" class="L"/><path d="M103.7,214.8c0,1-.8,1.9-1.9,1.9h-3.5c-1,0-1.9-.8-1.9-1.9v-3.5c0-1,.8-1.9,1.9-1.9h3.5c1,0,1.9.8,1.9,1.9v1.4" class="C N"/><path d="M113.4,216.7h-6c-.4,0-.6-.3-.6-.6v-6c0-.4.3-.6.6-.6h6c.4,0,.6.3.6.6v6c.1.3-.2.6-.6.6Z" class="M"/><path d="M86,224.1v-.6c0-1,.8-1.9,1.9-1.9h3.5c1,0,1.9.8,1.9,1.9v3.5c0,1-.8,1.9-1.9,1.9h-3.5c-1,0-1.9-.8-1.9-1.9v-.7" class="C N"/><path d="M103.1,228.9h-6c-.4,0-.6-.3-.6-.6v-6c0-.4.3-.6.6-.6h6c.4,0,.6.3.6.6v6c0,.3-.3.6-.6.6Z" class="O"/><path d="M113.4,228.9h-6c-.4,0-.6-.3-.6-.6v-6c0-.4.3-.6.6-.6h6c.4,0,.6.3.6.6v6c.1.3-.2.6-.6.6Z" class="L"/><path d="M92.7,241.1h-6c-.4,0-.6-.3-.6-.6v-6c0-.4.3-.6.6-.6h6c.4,0,.6.3.6.6v6c.1.3-.2.6-.6.6Z" class="O"/><path d="M103.1,241.1h-6c-.4,0-.6-.3-.6-.6v-6c0-.4.3-.6.6-.6h6c.4,0,.6.3.6.6v6c0,.3-.3.6-.6.6Z" class="L"/><path d="M114.1,238.4v.8c0,1-.8,1.9-1.9,1.9h-3.5c-1,0-1.9-.8-1.9-1.9v-3.5c0-1,.8-1.9,1.9-1.9h3.5c1,0,1.9.8,1.9,1.9v.8" class="C M"/></g></g></g><g id="Q" transform="matrix(0 0 0 0 385.799988 105.549999)" class="B D E F"><g transform="translate(-385.8 -105.55)"><g><path d="M378.4,97h-6c-.4,0-.6-.3-.6-.6v-6c0-.4.3-.6.6-.6h6c.4,0,.6.3.6.6v6c.1.3-.2.6-.6.6Z" class="L"/><path d="M389.4 95.1c0 1-.8 1.9-1.9 1.9H384c-1 0-1.9-.8-1.9-1.9v-3.5c0-1 .8-1.9 1.9-1.9h3.5c1 0 1.9.8 1.9 1.9V93" class="C N"/><path d="M399.1,97h-6c-.4,0-.6-.3-.6-.6v-6c0-.4.3-.6.6-.6h6c.4,0,.6.3.6.6v6c.1.3-.2.6-.6.6Z" class="M"/><path d="M371.8,104.4v-.6c0-1,.8-1.9,1.9-1.9h3.5c1,0,1.9.8,1.9,1.9v3.5c0,1-.8,1.9-1.9,1.9h-3.5c-1,0-1.9-.8-1.9-1.9v-.7" class="C N"/><path d="M388.8,109.2h-6c-.4,0-.6-.3-.6-.6v-6c0-.4.3-.6.6-.6h6c.4,0,.6.3.6.6v6c0,.3-.3.6-.6.6Z" class="O"/><path d="M399.1,109.2h-6c-.4,0-.6-.3-.6-.6v-6c0-.4.3-.6.6-.6h6c.4,0,.6.3.6.6v6c.1.3-.2.6-.6.6Z" class="L"/><path d="M378.4,121.4h-6c-.4,0-.6-.3-.6-.6v-6c0-.4.3-.6.6-.6h6c.4,0,.6.3.6.6v6c.1.3-.2.6-.6.6Z" class="O"/><path d="M388.8,121.4h-6c-.4,0-.6-.3-.6-.6v-6c0-.4.3-.6.6-.6h6c.4,0,.6.3.6.6v6c0,.3-.3.6-.6.6Z" class="L"/><path d="M399.8 118.7v.8c0 1-.8 1.9-1.9 1.9h-3.5c-1 0-1.9-.8-1.9-1.9V116c0-1 .8-1.9 1.9-1.9h3.5c1 0 1.9.8 1.9 1.9v.8" class="C M"/></g></g></g><g id="R" transform="matrix(0 0 0 0 242.949997 350.316376)" class="B C D E F"><g transform="translate(-242.95 -350.316)"><g><path d="M238.3,358l3.3,2.8c.9.7,2.1.8,3,.1l3.7-2.9" class="N"/><path d="M238.3 355.1v2.8s-8.3.4-11.2 8.2" class="M"/><path d="M258.8,366.1c-2-7.4-10.5-8.2-10.5-8.2v-3.3" class="M"/><path d="M235.5,337.6c-.6,1.6-.3,3.3-.3,3.3l1.4,5.6" class="L"/><path d="M249.6,346.5l1.4-5.6c.3-1.3.3-2.6-.3-3.8-.3-.6-1.1-.9-1.6-.9-.1,0-1.1.1-1,.2-.5-1.2-2.2-1.6-3.4-1.6-1.8-.1-3.5-.4-5.4-.2-1,.1-1.8.4-2.4.9" class="L"/><path d="M240 341.9c1.2 0 2.5-.2 3.6-.6 1.3-.4 2.8-1.6 4.2-1.2s1.7 2.7 1.7 3.9v2.4s1.2-.6 1.2 1.1c0 0-.3 1.4-1.2 1.5v1.9c-.1 3.4-3 6.2-6.5 6.2s-6.6-3.2-6.5-6.2V349c-.9-.1-1.2-1.5-1.2-1.5 0-1.7 1.2-1.1 1.2-1.1v-2.3c0-2.3 1.3-4.4 5.8-4" class="O"/></g></g></g><g id="S" transform="matrix(0 0 0 0 101.349998 103.616364)" class="B C D E F"><g transform="translate(-101.35 -103.616)"><g><path d="M96.7,111.3l3.3,2.8c.9.7,2.1.8,3,.1l3.7-2.9" class="N"/><path d="M96.7 108.4v2.8s-8.3.4-11.2 8.2" class="M"/><path d="M117.2 119.4c-2-7.4-10.5-8.2-10.5-8.2V108" class="M"/><path d="M93.9,90.9c-.6,1.6-.3,3.3-.3,3.3L95,99.8" class="L"/><path d="M108,99.8l1.4-5.6c.3-1.3.3-2.6-.3-3.8-.3-.6-1.1-.9-1.6-.9-.1,0-1.1.1-1,.2-.5-1.2-2.2-1.6-3.4-1.6-1.8-.1-3.5-.4-5.4-.2-1,.1-1.8.4-2.4.9" class="L"/><path d="M98.4 95.2c1.2 0 2.5-.2 3.6-.6 1.3-.4 2.8-1.6 4.2-1.2s1.7 2.7 1.7 3.9v2.4s1.2-.6 1.2 1.1c0 0-.3 1.4-1.2 1.5v1.9c-.1 3.4-3 6.2-6.5 6.2s-6.6-3.2-6.5-6.2v-1.9c-.9-.1-1.2-1.5-1.2-1.5 0-1.7 1.2-1.1 1.2-1.1v-2.3c0-2.3 1.3-4.4 5.8-4" class="O"/></g></g></g><g id="T" transform="matrix(0 0 0 0 101.349998 347.953522)" class="B D E F"><g transform="translate(-101.35 -347.954)"><g><path d="M98,353.8l2.2,2.8c.7.9,2,.9,2.7,0l2.3-2.8" class="C N"/><path d="M111.2 349.9l1 6.5" class="C L"/><path d="M91.5 356.1l1-15.3c.2-2.8.7-9 7.5-8.4 0 0 7.5-3 10 10.2.2.9.4 2.3.7 3.9" class="C L"/><path d="M98 351.5v2.3s-1 .9-4.5 1.8-8 2.8-8 8.2" class="C M"/><path d="M105.2 351.5v2.3s1 .9 4.5 1.8 7.5 2.8 7.5 8.2" class="C M"/><path d="M107.7 342.5s1.1-.3 1.1 1.1c0 0-.3 1.4-1.1 1.4v1.8c-.1 3.2-2.8 5.9-6.1 5.9s-6.2-3-6.1-5.9V345c-.8-.1-1.1-1.4-1.1-1.4 0-1.6 1.1-1.1 1.1-1.1s1.2-6.2 4.2-6.1c-.1 0 1.2 7.5 8 6.1z" class="O"/></g></g></g><g id="U" transform="matrix(0 0 0 0 243.25 103.603512)" class="B D E F"><g transform="translate(-243.25 -103.604)"><g><path d="M239.9,109.4l2.2,2.8c.7.9,2,.9,2.7,0l2.3-2.8" class="C N"/><path d="M253.1 105.6l1 6.5" class="C L"/><path d="M233.4 111.7l1-15.3c.2-2.8.7-9 7.5-8.4 0 0 7.5-3 10 10.2.2.9.4 2.3.7 3.9" class="C L"/><path d="M239.9 107.2v2.3s-1 .9-4.5 1.8-8 2.8-8 8.2" class="C M"/><path d="M247.1 107.2v2.3s1 .9 4.5 1.8 7.5 2.8 7.5 8.2" class="C M"/><path d="M249.6 98.2s1.1-.3 1.1 1.1c0 0-.3 1.4-1.1 1.4v1.8c-.1 3.2-2.8 5.9-6.1 5.9s-6.2-3-6.1-5.9v-1.8c-.8-.1-1.1-1.4-1.1-1.4 0-1.6 1.1-1.1 1.1-1.1s1.2-6.2 4.2-6.1c-.1 0 1.2 7.4 8 6.1z" class="O"/></g></g></g><g id="V" transform="matrix(0 0 0 0 385 228.849998)" class="B C D E F"><g transform="translate(-385.7 -228.85)"><g><path d="M369.8,219v-3.4c0-1.4,1.2-2.6,2.6-2.6h26.6c1.4,0,2.6,1.2,2.6,2.6v9.6" class="L"/><path d="M381.3 238v6.7" class="N"/><path d="M390.5 238v6.7" class="N"/><path d="M377.5 244.7h16.4" class="M"/><path d="M369.8,225.4v10c0,1.4,1.2,2.6,2.6,2.6h26.6c1.4,0,2.6-1.2,2.6-2.6v-3.8" class="O"/></g></g></g><g id="W" transform="matrix(0 0 0 0 386.199997 350.800018)" class="B C D E F"><g transform="translate(-386.2 -350.8)"><g><path d="M373.5,342.9v-2.3c0-1,.9-1.8,2.1-1.8h20.8c1.1,0,2.1.8,2.1,1.8v10.5" class="L"/><path d="M373.5,347.4v7c0,1,.9,1.8,2.1,1.8" class="O"/><path d="M391.4,356.2l-21,.1c0,1,.9,3.3,2.1,3.3h22.3" class="N"/></g><g><g><path d="M397.8 362.8h2.9c.7 0 1.2-.5 1.2-1.1V357" class="M"/><path d="M395.1,354.6v7.1c0,.6.5,1.1,1.2,1.1h1.8" class="M"/><path d="M399.5 351.9v.4h-2.1v-.4" class="L"/><path d="M402 354.2V353c0-.6-.5-1.1-1.2-1.1h-1-.2-2.1-.3-.8c-.7 0-1.2.5-1.2 1.1v1.7" class="M"/></g></g></g></g><g id="X" transform="matrix(0 0 0 0 244 101.774101)" class="B C H V W"><g transform="translate(-172.401 -103.65)"><path d="M158.573 94.2l21.827 18.789" transform="matrix(-.582839 .055436 -.073916 -.777131 279.513393 174.760704)"/><path d="M158.573 94.2l21.827 18.789" transform="matrix(.037389 .584274 -.779045 .049853 246.76918 -.391544)"/></g></g><g id="Y" transform="matrix(0 0 0 0 101 227.774101)" class="B C H V W"><g transform="translate(-172.401 -103.65)"><path d="M158.573 94.2l21.827 18.789" transform="matrix(-.582839 .055436 -.073916 -.777131 279.513393 174.760704)"/><path d="M158.573 94.2l21.827 18.789" transform="matrix(.037389 .584274 -.779045 .049853 246.76918 -.391544)"/></g></g><g id="Z" transform="matrix(1.5 0 0 1.5 -208.402103 41.29333)" class="B C H"><g id="a" transform="matrix(0 0 0 0 208 42.8)" class="F R"><path transform="translate(-50 -50)" d="M23.5 49.37l17.67 17.67L76.5 32.96"/></g><g id="b" transform="translate(204.938 42.79)" class="K"><path id="c" d="M199.296 37.752V34.8" transform="matrix(.704973 -.709234 .709234 .704973 -168.19815 113.912345)" class="J"/></g><g id="d" transform="translate(205.979 43.222)" class="K"><path id="e" d="M199.296 37.752V34.8" transform="matrix(.786158 .618026 -.618026 .786158 -132.638068 -153.86287)" class="J"/></g><g id="f" transform="translate(206.481 43.528)" class="K"><path id="g" d="M199.296 37.752V34.8" transform="matrix(-.724357 .689425 -.689425 -.724357 171.290389 -109.207337)" class="J"/></g><g id="h" transform="translate(205.455 43.458)" class="K"><path id="i" d="M199.296 37.752V34.8" transform="matrix(-.749665 -.661817 .661817 -.749665 123.565915 161.115264)" class="J"/></g></g><g id="j" transform="matrix(1.5 0 0 1.5 74.597897 287.29333)" class="B C H"><g id="k" transform="matrix(0 0 0 0 208 42.8)" class="F R"><path transform="translate(-50 -50)" d="M23.5 49.37l17.67 17.67L76.5 32.96"/></g><g id="l" transform="translate(204.938 42.79)" class="K"><path id="m" d="M199.296 37.752V34.8" transform="matrix(.704973 -.709234 .709234 .704973 -168.19815 113.912345)" class="J"/></g><g id="n" transform="translate(205.979 43.222)" class="K"><path id="o" d="M199.296 37.752V34.8" transform="matrix(.786158 .618026 -.618026 .786158 -132.638068 -153.86287)" class="J"/></g><g id="p" transform="translate(206.481 43.528)" class="K"><path id="q" d="M199.296 37.752V34.8" transform="matrix(-.724357 .689425 -.689425 -.724357 171.290389 -109.207337)" class="J"/></g><g id="r" transform="translate(205.455 43.458)" class="K"><path id="s" d="M199.296 37.752V34.8" transform="matrix(-.749665 -.661817 .661817 -.749665 123.565915 161.115264)" class="J"/></g></g><g id="t" transform="matrix(1.5 0 0 1.5 76.597897 41.29333)" class="B C H"><g id="u" transform="matrix(0 0 0 0 208 42.8)" class="F R"><path transform="translate(-50 -50)" d="M23.5 49.37l17.67 17.67L76.5 32.96"/></g><g id="v" transform="translate(204.938 42.79)" class="K"><path id="w" d="M199.296 37.752V34.8" transform="matrix(.704973 -.709234 .709234 .704973 -168.19815 113.912345)" class="J"/></g><g id="x" transform="translate(205.979 43.222)" class="K"><path id="y" d="M199.296 37.752V34.8" transform="matrix(.786158 .618026 -.618026 .786158 -132.638068 -153.86287)" class="J"/></g><g id="z" transform="translate(206.481 43.528)" class="K"><path id="AA" d="M199.296 37.752V34.8" transform="matrix(-.724357 .689425 -.689425 -.724357 171.290389 -109.207337)" class="J"/></g><g id="AB" transform="translate(205.455 43.458)" class="K"><path id="AC" d="M199.296 37.752V34.8" transform="matrix(-.749665 -.661817 .661817 -.749665 123.565915 161.115264)" class="J"/></g></g><g id="AD" transform="matrix(1.5 0 0 1.5 74.597897 162.29333)" class="B C H"><g id="AE" transform="matrix(0 0 0 0 208 42.8)" class="F R"><path transform="translate(-50 -50)" d="M23.5 49.37l17.67 17.67L76.5 32.96"/></g><g id="AF" transform="translate(204.938 42.79)" class="K"><path id="AG" d="M199.296 37.752V34.8" transform="matrix(.704973 -.709234 .709234 .704973 -168.19815 113.912345)" class="J"/></g><g id="AH" transform="translate(205.979 43.222)" class="K"><path id="AI" d="M199.296 37.752V34.8" transform="matrix(.786158 .618026 -.618026 .786158 -132.638068 -153.86287)" class="J"/></g><g id="AJ" transform="translate(206.481 43.528)" class="K"><path id="AK" d="M199.296 37.752V34.8" transform="matrix(-.724357 .689425 -.689425 -.724357 171.290389 -109.207337)" class="J"/></g><g id="AL" transform="translate(205.455 43.458)" class="K"><path id="AM" d="M199.296 37.752V34.8" transform="matrix(-.749665 -.661817 .661817 -.749665 123.565915 161.115264)" class="J"/></g></g><g id="AN" transform="matrix(1.5 0 0 1.5 -68.402103 285.29333)" class="B C H"><g id="AO" transform="matrix(0 0 0 0 208 42.8)" class="F R"><path transform="translate(-50 -50)" d="M23.5 49.37l17.67 17.67L76.5 32.96"/></g><g id="AP" transform="translate(204.938 42.79)" class="K"><path id="AQ" d="M199.296 37.752V34.8" transform="matrix(.704973 -.709234 .709234 .704973 -168.19815 113.912345)" class="J"/></g><g id="AR" transform="translate(205.979 43.222)" class="K"><path id="AS" d="M199.296 37.752V34.8" transform="matrix(.786158 .618026 -.618026 .786158 -132.638068 -153.86287)" class="J"/></g><g id="AT" transform="translate(206.481 43.528)" class="K"><path id="AU" d="M199.296 37.752V34.8" transform="matrix(-.724357 .689425 -.689425 -.724357 171.290389 -109.207337)" class="J"/></g><g id="AV" transform="translate(205.455 43.458)" class="K"><path id="AW" d="M199.296 37.752V34.8" transform="matrix(-.749665 -.661817 .661817 -.749665 123.565915 161.115264)" class="J"/></g></g></svg>