<?xml version="1.0" encoding="UTF-8"?>
<!-- Generator: Adobe Illustrator 23.0.3, SVG Export Plug-In . SVG Version: 6.00 Build 0)  -->
<svg xmlns="http://www.w3.org/2000/svg" xmlns:xlink="http://www.w3.org/1999/xlink" version="1.1" id="Layer_1" x="0px" y="0px" viewBox="0 0 240 109" style="enable-background:new 0 0 240 109;" xml:space="preserve">
<style type="text/css">
	.st0{fill:#005074;}
	.st1{fill:#FBA919;}
</style>
<g>
	<path class="st0" d="M6.16,99.31v-4.82h17.03c2.27,0,3.41-0.95,3.41-2.84c0-1.66-0.95-2.7-2.84-3.12l-11.07-2.27   c-4.35-0.83-6.53-3.1-6.53-6.81v-1.13c0-2.16,0.69-3.92,2.07-5.31c1.38-1.38,3.15-2.07,5.31-2.07h17.03v3.12l-1.7,1.7H14.68   c-2.27,0-3.41,0.95-3.41,2.84c0,1.67,0.95,2.71,2.84,3.12l11.07,2.27c4.35,0.83,6.53,3.1,6.53,6.81v1.13   c0,2.16-0.69,3.93-2.07,5.31c-1.38,1.38-3.15,2.07-5.31,2.07H6.16z"></path>
	<path class="st0" d="M35.34,92.21V78.02c0-2.27,0.71-4.12,2.13-5.53c1.42-1.42,3.26-2.13,5.53-2.13h13.06   c2.27,0,4.12,0.71,5.53,2.13c1.42,1.42,2.13,3.26,2.13,5.53v14.19c0,2.27-0.71,4.12-2.13,5.54c-1.42,1.42-3.26,2.13-5.53,2.13H43   c-2.27,0-4.11-0.71-5.53-2.13C36.05,96.33,35.34,94.48,35.34,92.21 M44.71,95.05h9.65c2.84,0,4.26-1.42,4.26-4.26V79.44   c0-2.84-1.42-4.26-4.26-4.26h-9.65c-2.84,0-4.26,1.42-4.26,4.26v11.35C40.45,93.63,41.87,95.05,44.71,95.05"></path>
	<path class="st0" d="M69.63,99.31V70.2c0-2.27,0.71-4.11,2.13-5.53c1.42-1.42,3.26-2.13,5.53-2.13h11.35v4.82h-9.65   c-2.84,0-4.26,1.42-4.26,4.26v7.83h10.78v2.84l-1.13,1.99h-9.65v15.04H69.63z"></path>
	<path class="st0" d="M94.2,91.64V75.75h-5.36v-4.83h5.65l1.7-8.51h3.12v8.51h9.93v3.12l-1.7,1.7h-8.23v14.47   c0,2.84,1.42,4.26,4.26,4.26h6.53v4.82h-8.23c-2.27,0-4.11-0.71-5.53-2.13C94.91,95.76,94.2,93.92,94.2,91.64"></path>
	<polygon class="st0" points="119.12,99.31 111.18,73.76 111.18,70.93 115.72,70.93 122.25,92.78 122.53,92.78 129.62,70.93    135.58,70.93 142.96,92.78 143.25,92.78 149.49,70.93 154.03,70.93 154.03,73.76 146.09,99.31 140.13,99.31 132.75,77.45    132.46,77.45 125.08,99.31  "></polygon>
	<path class="st0" d="M155.68,92.5v-2.84c0-2.27,0.66-4.07,1.99-5.39c1.33-1.32,3.12-1.99,5.39-1.99h13.91v-2.27   c0-2.84-1.42-4.26-4.26-4.26h-14.76v-4.83h16.46c2.27,0,4.12,0.71,5.53,2.13c1.42,1.42,2.13,3.26,2.13,5.53v20.72h-3.97l-0.85-3.12   h-0.28c-0.34,0.72-0.83,1.34-1.48,1.87c-1.44,1.21-3.22,1.82-5.34,1.82h-7.09c-2.27,0-4.07-0.66-5.39-1.99   C156.34,96.56,155.68,94.77,155.68,92.5 M164.48,95.05h6.53c1.85,0,3.31-0.53,4.37-1.59c1.06-1.06,1.59-2.52,1.59-4.37V87.1h-12.49   c-2.46,0-3.69,1.23-3.69,3.69v0.57C160.79,93.82,162.02,95.05,164.48,95.05"></path>
	<path class="st0" d="M187.98,99.31V70.93h3.97l0.85,3.12h0.28c0.34-0.68,0.83-1.29,1.48-1.82c1.48-1.25,3.25-1.87,5.34-1.87h7.38   v4.83h-8.23c-1.86,0-3.31,0.53-4.37,1.59c-1.06,1.06-1.59,2.52-1.59,4.37v18.16H187.98z"></path>
	<path class="st0" d="M209.78,91.64V78.02c0-2.27,0.71-4.12,2.13-5.53c1.42-1.42,3.26-2.13,5.53-2.13h12.2   c2.27,0,4.12,0.71,5.54,2.13c1.42,1.42,2.13,3.26,2.13,5.53v9.93h-22.42v2.27c0,2.84,1.42,4.26,4.26,4.26h17.03v4.82h-18.73   c-2.27,0-4.11-0.71-5.53-2.13C210.49,95.76,209.78,93.92,209.78,91.64 M214.88,83.13h17.31v-3.69c0-2.84-1.42-4.26-4.26-4.26h-8.8   c-2.84,0-4.26,1.42-4.26,4.26V83.13z"></path>
	<path class="st1" d="M6.16,49.03V46.2c0-2.27,0.66-4.07,1.99-5.39c1.33-1.32,3.12-1.99,5.39-1.99h13.91v-2.27   c0-2.84-1.42-4.26-4.26-4.26H8.43v-4.83H24.9c2.27,0,4.12,0.71,5.53,2.13c1.42,1.42,2.13,3.26,2.13,5.53v20.72h-3.97l-0.85-3.12   h-0.28c-0.34,0.72-0.83,1.34-1.48,1.87c-1.44,1.21-3.22,1.82-5.34,1.82h-7.09c-2.27,0-4.07-0.66-5.39-1.99   C6.82,53.1,6.16,51.3,6.16,49.03 M14.96,51.59h6.53c1.85,0,3.31-0.53,4.37-1.59c1.06-1.06,1.59-2.52,1.59-4.37v-1.99H14.96   c-2.46,0-3.69,1.23-3.69,3.69v0.57C11.27,50.36,12.5,51.59,14.96,51.59"></path>
	<path class="st1" d="M38.46,55.85V27.46h3.97l0.85,3.12h0.28c0.34-0.68,0.83-1.29,1.48-1.82c1.48-1.25,3.25-1.87,5.34-1.87h7.38   v4.83h-8.23c-1.86,0-3.31,0.53-4.37,1.59c-1.06,1.06-1.59,2.52-1.59,4.37v18.16H38.46z"></path>
	<path class="st1" d="M58.56,49.03V46.2c0-2.27,0.66-4.07,1.99-5.39c1.33-1.32,3.12-1.99,5.39-1.99h13.91v-2.27   c0-2.84-1.42-4.26-4.26-4.26H60.83v-4.83h16.46c2.27,0,4.12,0.71,5.53,2.13c1.42,1.42,2.13,3.26,2.13,5.53v20.72h-3.97l-0.85-3.12   h-0.28c-0.34,0.72-0.83,1.34-1.48,1.87c-1.44,1.21-3.22,1.82-5.34,1.82h-7.09c-2.27,0-4.07-0.66-5.39-1.99   C59.22,53.1,58.56,51.3,58.56,49.03 M67.36,51.59h6.53c1.85,0,3.31-0.53,4.37-1.59c1.06-1.06,1.59-2.52,1.59-4.37v-1.99H67.36   c-2.46,0-3.69,1.23-3.69,3.69v0.57C63.67,50.36,64.9,51.59,67.36,51.59"></path>
	<path class="st1" d="M91.14,55.85v-38.6h5.11V30.3h0.28c0.45-0.68,0.94-1.25,1.48-1.7c1.44-1.14,3.12-1.7,5.05-1.7h8.23   c2.27,0,4.12,0.71,5.53,2.13c1.42,1.42,2.13,3.26,2.13,5.53v13.62c0,2.27-0.71,4.12-2.13,5.54c-1.42,1.42-3.26,2.13-5.53,2.13   H91.14z M96.25,51.02h13.34c2.84,0,4.26-1.42,4.26-4.26V35.98c0-2.84-1.42-4.26-4.26-4.26h-7.38c-1.86,0-3.31,0.53-4.37,1.59   c-1.06,1.06-1.59,2.52-1.59,4.37V51.02z"></path>
	<rect x="124.86" y="27.46" class="st1" width="5.11" height="28.38"></rect>
	<path class="st1" d="M135.3,49.03V46.2c0-2.27,0.66-4.07,1.99-5.39c1.33-1.32,3.12-1.99,5.39-1.99h13.91v-2.27   c0-2.84-1.42-4.26-4.26-4.26h-14.76v-4.83h16.46c2.27,0,4.12,0.71,5.53,2.13c1.42,1.42,2.13,3.26,2.13,5.53v20.72h-3.97l-0.85-3.12   h-0.28c-0.34,0.72-0.83,1.34-1.48,1.87c-1.44,1.21-3.22,1.82-5.34,1.82h-7.09c-2.27,0-4.07-0.66-5.39-1.99   C135.96,53.1,135.3,51.3,135.3,49.03 M144.1,51.59h6.53c1.85,0,3.31-0.53,4.37-1.59c1.06-1.06,1.59-2.52,1.59-4.37v-1.99H144.1   c-2.46,0-3.69,1.23-3.69,3.69v0.57C140.41,50.36,141.64,51.59,144.1,51.59"></path>
	<path class="st1" d="M167.6,55.85V27.46h3.97l0.85,3.12h0.28c0.34-0.68,0.83-1.29,1.48-1.82c1.48-1.25,3.25-1.87,5.34-1.87h7.66   c2.27,0,4.12,0.71,5.53,2.13c1.42,1.42,2.13,3.26,2.13,5.53v21.29h-5.11V35.98c0-2.84-1.42-4.26-4.26-4.26h-6.81   c-1.86,0-3.31,0.53-4.37,1.59c-1.06,1.06-1.59,2.52-1.59,4.37v18.16H167.6z"></path>
	
		<rect x="124.42" y="17.28" transform="matrix(0.7071 -0.7071 0.7071 0.7071 22.9521 96.1029)" class="st1" width="6.13" height="6.13"></rect>
	
		<rect x="124.42" y="8.62" transform="matrix(0.7071 -0.7071 0.7071 0.7071 29.0772 93.5658)" class="st1" width="6.13" height="6.13"></rect>
</g>
</svg>
