<svg width="305" height="152" viewBox="0 0 305 152" fill="none" xmlns="http://www.w3.org/2000/svg">
<path d="M270.108 82.1519C267.308 82.1519 264.589 82.4915 261.983 83.1215C262.566 80.5394 262.861 77.9005 262.863 75.2531C262.863 55.4977 246.848 39.4827 227.093 39.4827C219.929 39.4728 212.929 41.6244 207.009 45.6546C200.259 19.9002 176.827 0.9 148.956 0.9C115.846 0.9 88.9982 27.7143 88.9443 60.8117C64.058 60.8657 43.9 81.0565 43.9 105.956C43.9 130.888 64.1115 151.1 89.0442 151.1H270.108C289.147 151.1 304.582 135.665 304.582 116.626C304.582 97.5866 289.147 82.1519 270.108 82.1519Z" fill="#ADE8FF" stroke="black" stroke-width="0.2"/>
<circle cx="144" cy="43" r="15" fill="#7FD8F9"/>
<path d="M149.929 47.4291C149.857 47.2862 149.786 47.1434 149.786 47.0005C149.786 46.7148 149.643 46.5005 149.429 46.2862C149.357 46.2148 149.214 46.1434 149.143 46.1434C149.571 44.8577 148.929 43.5719 148.214 42.6434C147.643 41.7862 146.786 41.1434 146.857 40.0005C146.857 38.6434 147 36.1434 144.5 36.3577C141.929 36.5005 142.643 39.1434 142.571 40.0719C142.571 40.8577 142.214 41.6434 141.643 42.2862C141.5 42.4291 141.357 42.6434 141.286 42.7862C140.571 43.6434 140.214 44.7862 140.214 45.8577C140.071 46.0005 139.929 46.1434 139.857 46.2862C139.786 46.3577 139.714 46.4291 139.714 46.5005C139.643 46.5719 139.5 46.6434 139.357 46.7148C139.071 46.7862 138.857 46.9291 138.714 47.2148C138.643 47.4291 138.571 47.7148 138.643 48.0005C138.714 48.1434 138.714 48.2862 138.643 48.5005C138.5 48.7862 138.5 49.1434 138.643 49.5005C138.857 49.7862 139.214 49.8577 139.714 49.9291C140.071 49.9291 140.5 50.0719 140.857 50.2148C141.214 50.4291 141.643 50.5719 142.071 50.5719C142.286 50.5719 142.571 50.5005 142.786 50.4291C143 50.2862 143.143 50.1434 143.214 49.9291C143.5 49.9291 143.929 49.7862 144.429 49.7862C144.857 49.7862 145.286 49.9291 145.857 49.8577C145.857 49.9291 145.857 50.0005 145.929 50.0719C146.071 50.4291 146.429 50.7148 146.857 50.7862H147C147.571 50.7148 148.143 50.4291 148.5 50.0005C148.786 49.7148 149.143 49.5005 149.5 49.3577C149.929 49.1434 150.214 49.0005 150.286 48.6434C150.357 48.1434 150.214 47.8577 149.929 47.4291ZM145 38.2862C145.429 38.3577 145.786 38.7148 145.714 39.1434C145.714 39.3577 145.643 39.5719 145.5 39.7862H145.429C145.286 39.7148 145.214 39.7148 145.143 39.6434C145.214 39.5719 145.214 39.4291 145.286 39.2862C145.286 39.0005 145.143 38.7862 145 38.7862C144.786 38.7862 144.643 39.0005 144.643 39.2862V39.3577C144.571 39.2862 144.429 39.2862 144.357 39.2148V39.1434C144.286 38.7862 144.571 38.3577 145 38.2862V38.2862ZM144.786 39.7148C144.857 39.7862 145 39.8577 145.071 39.8577C145.143 39.8577 145.286 39.9291 145.357 40.0005C145.5 40.0719 145.643 40.1434 145.643 40.3577C145.643 40.5719 145.429 40.7862 145 40.9291C144.857 41.0005 144.786 41.0005 144.714 41.0719C144.5 41.2148 144.286 41.2862 144 41.2862C143.786 41.2862 143.571 41.1434 143.429 41.0005C143.357 40.9291 143.286 40.8577 143.143 40.7862C143.071 40.7148 142.929 40.5719 142.857 40.3577C142.857 40.2862 142.929 40.2148 143 40.1434C143.214 40.0005 143.286 39.9291 143.357 39.8577L143.429 39.7862C143.571 39.5719 143.857 39.4291 144.143 39.4291C144.357 39.5005 144.571 39.5719 144.786 39.7148V39.7148ZM143.286 38.4291C143.571 38.4291 143.786 38.7148 143.857 39.2148V39.3577C143.786 39.3577 143.643 39.4291 143.571 39.5005V39.3577C143.571 39.1434 143.429 38.9291 143.286 39.0005C143.143 39.0005 143.071 39.2148 143.071 39.4291C143.071 39.5719 143.143 39.6434 143.214 39.7148C143.214 39.7148 143.143 39.7862 143.071 39.7862C142.929 39.6434 142.786 39.4291 142.786 39.2148C142.786 38.7862 143 38.4291 143.286 38.4291V38.4291ZM142.571 49.9291C142.071 50.1434 141.429 50.0719 141 49.7862C140.571 49.5719 140.214 49.5005 139.714 49.5005C139.357 49.4291 139 49.4291 138.929 49.2862C138.857 49.1434 138.857 48.9291 139 48.5719C139.071 48.3577 139.071 48.1434 139 47.9291C138.929 47.7148 138.929 47.5719 139 47.3577C139.071 47.1434 139.214 47.0719 139.429 47.0005C139.643 46.9291 139.786 46.8577 139.929 46.7148C140 46.6434 140.071 46.5719 140.143 46.4291C140.357 46.1434 140.5 46.0005 140.714 46.0005C141.143 46.0719 141.5 46.7148 141.786 47.3577C141.929 47.5719 142.071 47.8577 142.286 48.0719C142.571 48.4291 142.929 48.9291 142.929 49.2148C142.929 49.5719 142.786 49.7862 142.571 49.9291V49.9291ZM146.071 48.3577C146.071 48.4291 146.071 48.4291 146 48.5005C145.143 49.1434 144 49.2148 143.071 48.7148L142.643 48.0719C143.286 48.0005 143.143 47.1434 141.786 46.2862C140.357 45.3577 141.357 43.6434 141.857 42.8577C141.929 42.7862 141.929 42.8577 141.643 43.4291C141.429 43.8577 141 44.9291 141.571 45.7148C141.571 45.1434 141.714 44.5719 141.929 44.0005C142.429 43.0719 142.786 42.0005 143 40.9291C143.071 41.0005 143.071 41.0005 143.143 41.0005C143.214 41.0719 143.286 41.1434 143.357 41.1434C143.5 41.3577 143.786 41.4291 144 41.4291H144.071C144.357 41.4291 144.643 41.3577 144.857 41.1434C144.929 41.0719 145 41.0005 145.143 41.0005C145.357 40.9291 145.571 40.7862 145.786 40.5719C146.071 41.5005 146.357 42.3577 146.786 43.1434C147.071 43.7148 147.286 44.2862 147.429 44.9291C147.643 44.9291 147.929 45.0005 148.143 45.1434C148.714 45.4291 148.929 45.6434 148.857 46.0005H148.714C148.714 45.7862 148.571 45.5719 148.071 45.3577C147.571 45.1434 147.143 45.1434 147 45.6434C146.929 45.6434 146.857 45.7148 146.786 45.7148C146.214 46.0005 146.214 46.7862 146.143 47.5719C146.214 47.8577 146.143 48.0719 146.071 48.3577V48.3577ZM149.357 48.7862C148.929 48.9291 148.571 49.2148 148.286 49.5719C148 50.0005 147.5 50.2862 146.929 50.2148C146.643 50.2148 146.357 50.0005 146.286 49.7148C146.214 49.2862 146.214 48.8577 146.429 48.4291C146.5 48.1434 146.571 47.9291 146.643 47.6434C146.714 46.7862 146.714 46.2862 147.071 46.0719C147.071 46.4291 147.286 46.6434 147.571 46.7862C147.929 46.7862 148.286 46.7148 148.571 46.4291H148.714C148.929 46.4291 149.071 46.4291 149.214 46.5719C149.357 46.7148 149.429 46.9291 149.429 47.0719C149.429 47.2862 149.571 47.5005 149.643 47.7148C150 48.0719 150 48.2862 150 48.3577C149.929 48.5005 149.643 48.6434 149.357 48.7862V48.7862ZM142.929 40.2148C142.857 40.2148 142.857 40.2148 142.857 40.2862C142.857 40.2862 142.857 40.3577 142.929 40.3577C143 40.3577 143 40.4291 143 40.4291C143.214 40.7148 143.571 40.8577 144 40.9291C144.357 40.8577 144.714 40.7862 145.071 40.5005L145.5 40.2862C145.571 40.2862 145.571 40.2148 145.571 40.2148C145.571 40.1434 145.571 40.1434 145.5 40.1434C145.357 40.2148 145.143 40.2862 145 40.3577C144.714 40.5719 144.357 40.7148 144 40.7148C143.643 40.7148 143.357 40.5005 143.143 40.2862C143.071 40.2862 143 40.2148 142.929 40.2148Z" fill="black"/>
<circle cx="106" cy="103" r="15" fill="#7FD8F9"/>
<g clip-path="url(#clip0_190_2415)">
<path d="M112.495 106.206C112.101 107.079 111.912 107.47 111.406 108.241C110.699 109.318 109.7 110.663 108.465 110.672C107.366 110.681 107.083 109.955 105.592 109.967C104.101 109.975 103.791 110.685 102.691 110.674C101.456 110.663 100.51 109.452 99.8023 108.376C97.8223 105.36 97.6133 101.824 98.837 99.9433C99.7027 98.6095 101.073 97.8262 102.359 97.8262C103.669 97.8262 104.493 98.5462 105.576 98.5462C106.627 98.5462 107.267 97.8242 108.783 97.8242C109.928 97.8242 111.14 98.4486 112.006 99.5259C109.173 101.078 109.634 105.124 112.495 106.206V106.206ZM107.633 96.6202C108.184 95.9127 108.602 94.9145 108.45 93.8965C107.551 93.9578 106.499 94.5321 105.885 95.2758C105.328 95.953 104.867 96.9591 105.047 97.9323C106.028 97.964 107.043 97.3791 107.633 96.6202V96.6202Z" fill="black"/>
</g>
<circle cx="165" cy="82" r="15" fill="#7FD8F9"/>
<g clip-path="url(#clip1_190_2415)">
<path fill-rule="evenodd" clip-rule="evenodd" d="M167.773 75.424L168.514 74.0749C168.528 74.0413 168.529 74.0039 168.517 73.9696C168.504 73.9354 168.48 73.9069 168.448 73.8895C168.417 73.8721 168.379 73.867 168.344 73.8753C168.309 73.8836 168.278 73.9046 168.257 73.9343L167.508 75.2972C166.852 75.0083 166.143 74.86 165.427 74.8617C164.682 74.8617 163.978 75.0169 163.349 75.2955L162.598 73.9343C162.589 73.9174 162.576 73.9024 162.561 73.8902C162.547 73.8781 162.529 73.869 162.511 73.8635C162.492 73.858 162.473 73.8562 162.454 73.8582C162.435 73.8602 162.416 73.866 162.399 73.8752C162.382 73.8842 162.367 73.8965 162.355 73.9114C162.342 73.9264 162.333 73.9436 162.328 73.9621C162.322 73.9807 162.32 74.0001 162.323 74.0193C162.325 74.0385 162.331 74.0571 162.34 74.074L163.082 75.4215C161.625 76.1706 160.639 77.596 160.64 79.2332L170.211 79.2323C170.211 77.5952 169.229 76.1723 167.773 75.4232V75.424ZM163.249 77.5069C163.196 77.5068 163.144 77.4964 163.095 77.4762C163.047 77.4561 163.003 77.4265 162.966 77.3893C162.929 77.3521 162.899 77.308 162.879 77.2594C162.859 77.2108 162.849 77.1587 162.849 77.1062C162.849 77.0536 162.859 77.0016 162.879 76.953C162.9 76.9045 162.929 76.8604 162.966 76.8232C163.003 76.7861 163.048 76.7567 163.096 76.7366C163.145 76.7166 163.197 76.7063 163.249 76.7063C163.356 76.7063 163.458 76.7485 163.533 76.8237C163.608 76.8988 163.65 77.0007 163.65 77.107C163.65 77.2133 163.608 77.3152 163.533 77.3904C163.458 77.4655 163.356 77.5077 163.249 77.5077L163.249 77.5069ZM170.179 79.6L170.18 86.4675C170.18 86.8797 169.956 87.2363 169.625 87.4335C169.45 87.5393 169.25 87.5956 169.046 87.5963L168.271 87.5972V89.9406C168.271 90.0981 168.236 90.2536 168.168 90.3957C168.101 90.5379 168.002 90.6632 167.88 90.7625C167.758 90.8619 167.615 90.9327 167.462 90.9699C167.309 91.0072 167.149 91.0098 166.995 90.9777C166.756 90.9289 166.541 90.7991 166.387 90.6104C166.232 90.4216 166.147 90.1854 166.147 89.9415V87.5972H164.711V89.9415C164.71 90.2225 164.598 90.4919 164.399 90.6904C164.2 90.8889 163.931 91.0003 163.65 91C163.369 90.9998 163.099 90.8883 162.901 90.6899C162.702 90.4915 162.589 90.2224 162.589 89.9415V87.5972H161.816C161.37 87.5972 160.987 87.34 160.803 86.9663C160.725 86.812 160.683 86.6415 160.682 86.4683L160.681 79.6026L170.179 79.6ZM159.205 79.4029C159.792 79.4029 160.268 79.8769 160.268 80.4606V84.892C160.268 85.0837 160.216 85.2717 160.117 85.4361C160.019 85.6005 159.877 85.7352 159.708 85.8257C159.539 85.9163 159.349 85.9593 159.158 85.9504C158.966 85.9414 158.781 85.8808 158.621 85.7749C158.474 85.6789 158.354 85.548 158.27 85.3939C158.187 85.2397 158.143 85.0673 158.143 84.892L158.143 80.4597C158.143 79.8769 158.618 79.402 159.205 79.402V79.4029ZM171.651 79.402C172.237 79.402 172.714 79.8752 172.714 80.4597V84.8903C172.714 85.4757 172.238 85.9489 171.652 85.9489C171.065 85.9489 170.589 85.4757 170.589 84.8903V80.4589C170.589 79.8743 171.064 79.4003 171.65 79.4012L171.651 79.402ZM167.605 76.7072C167.66 76.7047 167.714 76.7132 167.764 76.7321C167.815 76.7511 167.861 76.7801 167.9 76.8175C167.94 76.8549 167.971 76.8998 167.992 76.9496C168.013 76.9993 168.024 77.0529 168.024 77.107C168.024 77.1612 168.013 77.2147 167.992 77.2645C167.971 77.3142 167.94 77.3592 167.9 77.3965C167.861 77.4339 167.815 77.463 167.764 77.4819C167.714 77.5009 167.66 77.5094 167.605 77.5069C167.551 77.5094 167.497 77.5009 167.447 77.4819C167.396 77.463 167.35 77.4339 167.31 77.3965C167.271 77.3592 167.24 77.3142 167.219 77.2645C167.198 77.2147 167.187 77.1612 167.187 77.107C167.187 77.0529 167.198 76.9993 167.219 76.9496C167.24 76.8998 167.271 76.8549 167.31 76.8175C167.35 76.7801 167.396 76.7511 167.447 76.7321C167.497 76.7132 167.551 76.7047 167.605 76.7072V76.7072Z" fill="black"/>
</g>
<circle cx="227" cy="91" r="15" fill="#7FD8F9"/>
<path d="M221 90.285V86.535L225.286 85.5922V90.2207L221 90.285ZM233.143 83.8564V90.1064L226 90.2136V85.435L233.143 83.8564ZM221 90.9993L225.286 91.0636V95.9279L221 95.1064V90.9993ZM233.143 91.1779V97.4279L226 96.0636V91.0707L233.143 91.1779Z" fill="black"/>
<path fill-rule="evenodd" clip-rule="evenodd" d="M102.612 59.4724C87.3771 60.5621 77.2947 48.8949 72.6238 35.4272C72.5431 35.1961 72.29 35.0728 72.0588 35.1534C71.8277 35.2341 71.7044 35.4872 71.7851 35.7183C76.5861 49.5634 87.0142 61.4781 102.676 60.3576C102.92 60.3406 103.104 60.1281 103.086 59.883C103.069 59.639 102.857 59.4552 102.612 59.4724Z" fill="black"/>
<path fill-rule="evenodd" clip-rule="evenodd" d="M72.2924 35.8255C72.8773 36.3415 73.6042 36.9972 73.6888 37.0692C75.983 39.0204 78.4569 40.5111 81.2343 41.692C81.4597 41.7881 81.7209 41.6824 81.817 41.4571C81.9131 41.2318 81.8075 40.9706 81.5822 40.8745C78.8885 39.7303 76.4889 38.2852 74.2637 36.3922C74.1339 36.282 72.5008 34.807 72.1482 34.5336C72.0041 34.4207 71.8875 34.4017 71.8595 34.3998C71.7116 34.3842 71.6093 34.4353 71.5387 34.4899C71.4594 34.552 71.3537 34.6865 71.3333 34.9066C71.3128 35.1371 71.3876 35.6231 71.3965 35.7473C71.5266 37.6216 71.835 39.7021 71.7289 41.6811C71.6278 43.5684 71.149 45.3656 69.706 46.768C69.5301 46.9386 69.5267 47.2203 69.6973 47.3962C69.8679 47.572 70.1496 47.5754 70.3255 47.4049C71.9385 45.8366 72.5027 43.8382 72.6158 41.7292C72.7211 39.7619 72.4299 37.6971 72.2924 35.8255Z" fill="black"/>
<path d="M1.16211 26H4.27246C7.41699 26 9.41992 24.2227 9.41992 20.9482C9.41992 17.7627 7.51953 15.9922 4.2998 15.9922H1.16211V26ZM2.73438 24.7559V17.2363H4.21777C6.65137 17.2363 7.7998 18.5078 7.7998 20.9346C7.7998 23.2861 6.71973 24.7559 4.23145 24.7559H2.73438ZM16.2354 23.8467C15.8457 24.585 15.1621 25.0088 14.2666 25.0088C12.8652 25.0088 12.1475 23.9834 12.1475 22.6367H17.582C17.582 20.3535 16.7686 18.5352 14.2051 18.5352C12.0449 18.5352 10.6641 20.21 10.6641 22.3633C10.6641 24.4961 12.0244 26.1367 14.335 26.1367C15.6475 26.1367 16.7959 25.6035 17.4385 24.3594L16.2354 23.8467ZM12.1885 21.5977C12.3525 20.4971 13.0156 19.6426 14.2598 19.6426C15.4492 19.6426 16.0645 20.415 16.1396 21.5977H12.1885ZM19.2227 28.5361H20.6787V24.8242C21.1709 25.6992 22.2578 26.1367 23.2217 26.1367C25.3887 26.1367 26.5303 24.373 26.5303 22.3086C26.5303 20.3125 25.4639 18.5352 23.2217 18.5352C22.2715 18.5352 21.1709 19.041 20.6787 19.8887V18.6719H19.2227V28.5361ZM22.9072 24.9609C21.3691 24.9609 20.6172 23.8398 20.6172 22.3496C20.6172 20.9551 21.2871 19.7109 22.8252 19.7109C24.3701 19.7109 25.0469 20.9551 25.0469 22.2881C25.0469 23.7236 24.5273 24.9609 22.9072 24.9609ZM28.2119 26H29.668V15.2334L28.2119 15.876V26ZM35.0547 26.1367C37.249 26.1367 38.8076 24.5439 38.8076 22.3223C38.8076 20.1758 37.3584 18.5283 35.1367 18.5283C32.9424 18.5283 31.3906 20.1348 31.3906 22.2812C31.3906 24.4893 32.8262 26.1367 35.0547 26.1367ZM35.1025 24.9746C33.5713 24.9746 32.874 23.8057 32.874 22.3359C32.874 20.9482 33.4961 19.6904 35.0752 19.6904C36.627 19.6904 37.3242 20.9141 37.3242 22.3428C37.3242 23.7168 36.6816 24.9746 35.1025 24.9746ZM41.0703 28.5361H42.5127L46.5322 18.6787H45.0898L43.1826 23.6484L41.1387 18.6787H39.5732L42.4307 25.2412L41.0703 28.5361ZM47.9199 26H49.376V21.5703C49.376 20.5586 49.9639 19.7656 51.0918 19.7656C52.0967 19.7656 52.6094 20.3877 52.6094 21.4268V26H54.0654V21.5703C54.0654 20.5586 54.6602 19.7656 55.7266 19.7656C56.8135 19.7656 57.3125 20.374 57.3125 21.4268V26H58.7686V21.3994C58.7686 19.7656 57.9141 18.5283 56.2324 18.5283C55.1934 18.5283 54.25 19 53.7578 19.875C53.3955 18.9521 52.4248 18.5283 51.4883 18.5283C50.5654 18.5283 49.793 18.9385 49.376 19.793V18.6719H47.9199V26ZM65.9326 23.8467C65.543 24.585 64.8594 25.0088 63.9639 25.0088C62.5625 25.0088 61.8447 23.9834 61.8447 22.6367H67.2793C67.2793 20.3535 66.4658 18.5352 63.9023 18.5352C61.7422 18.5352 60.3613 20.21 60.3613 22.3633C60.3613 24.4961 61.7217 26.1367 64.0322 26.1367C65.3447 26.1367 66.4932 25.6035 67.1357 24.3594L65.9326 23.8467ZM61.8857 21.5977C62.0498 20.4971 62.7129 19.6426 63.957 19.6426C65.1465 19.6426 65.7617 20.415 65.8369 21.5977H61.8857ZM68.9199 26H70.376V21.625C70.376 20.4766 71.0938 19.7588 72.2764 19.7588C73.3975 19.7588 73.9307 20.4014 73.9307 21.5293V26H75.3867V21.4883C75.3867 19.7998 74.5527 18.5352 72.7754 18.5352C71.7842 18.5352 70.8135 18.9248 70.376 19.834V18.6719H68.9199V26ZM80.9512 24.7695C80.6641 24.8652 80.377 24.9199 80.1309 24.9199C79.4473 24.9199 79.2148 24.5029 79.2148 23.915V19.8066H80.8623V18.6719H79.2148V16.6006L77.7725 17.2295V18.6719H76.7471V19.8066H77.7725V24.0518C77.7725 25.4395 78.4971 26.1094 79.8574 26.1094C80.2471 26.1094 80.6025 26.0547 80.9512 25.9453V24.7695Z" fill="black"/>
<path d="M143.162 138H144.714V134.069L145.965 134.083C148.084 134.104 150.053 133.536 150.053 131.068C150.053 128.84 148.439 127.992 146.437 127.992H143.162V138ZM144.714 132.907V129.223H146.484C147.722 129.223 148.501 129.681 148.501 131.041C148.501 132.354 147.776 132.907 146.484 132.907H144.714ZM151.604 138H153.061V127.233L151.604 127.876V138ZM159.432 138H160.86V133.208C160.86 131.451 159.671 130.535 157.976 130.535C156.69 130.535 155.48 131.062 154.954 132.312L156.144 132.825C156.396 132.114 157.128 131.67 157.866 131.67C159.24 131.67 159.418 132.497 159.418 133.673H158.509C156.834 133.673 154.729 134.015 154.729 135.97C154.729 137.398 155.836 138.137 157.176 138.137C158.058 138.137 158.892 137.822 159.432 137.091V138ZM159.418 134.623V135.437C159.418 136.517 158.399 137.05 157.442 137.05C156.69 137.05 156.171 136.729 156.171 135.983C156.171 134.746 157.613 134.623 158.495 134.623H159.418ZM166.432 136.77C166.145 136.865 165.857 136.92 165.611 136.92C164.928 136.92 164.695 136.503 164.695 135.915V131.807H166.343V130.672H164.695V128.601L163.253 129.229V130.672H162.228V131.807H163.253V136.052C163.253 137.439 163.978 138.109 165.338 138.109C165.728 138.109 166.083 138.055 166.432 137.945V136.77ZM168.284 138H169.74V131.807H171.463V130.672H169.733V129.633C169.733 128.936 169.938 128.334 170.745 128.334C170.909 128.334 171.073 128.361 171.237 128.389L171.682 127.356C171.347 127.227 170.984 127.172 170.581 127.172C168.325 127.172 168.284 128.867 168.284 130.672H167.259V131.807H168.284V138ZM175.742 138.137C177.937 138.137 179.495 136.544 179.495 134.322C179.495 132.176 178.046 130.528 175.824 130.528C173.63 130.528 172.078 132.135 172.078 134.281C172.078 136.489 173.514 138.137 175.742 138.137ZM175.79 136.975C174.259 136.975 173.562 135.806 173.562 134.336C173.562 132.948 174.184 131.69 175.763 131.69C177.314 131.69 178.012 132.914 178.012 134.343C178.012 135.717 177.369 136.975 175.79 136.975ZM181.156 138H182.612V134.09C182.612 132.477 183.508 131.957 185.005 131.902V130.542C183.884 130.542 183.132 131.014 182.612 132.019V130.672H181.156V138ZM186.584 138H188.04V133.57C188.04 132.559 188.628 131.766 189.756 131.766C190.761 131.766 191.273 132.388 191.273 133.427V138H192.729V133.57C192.729 132.559 193.324 131.766 194.391 131.766C195.478 131.766 195.977 132.374 195.977 133.427V138H197.433V133.399C197.433 131.766 196.578 130.528 194.896 130.528C193.857 130.528 192.914 131 192.422 131.875C192.06 130.952 191.089 130.528 190.152 130.528C189.229 130.528 188.457 130.938 188.04 131.793V130.672H186.584V138ZM198.957 136.305C199.395 137.576 200.611 138.137 201.917 138.137C203.346 138.137 204.727 137.467 204.727 135.819C204.727 134.206 203.394 133.926 202.231 133.687C201.336 133.502 200.536 133.338 200.536 132.593C200.536 131.909 201.22 131.649 201.835 131.649C202.512 131.649 203.141 131.964 203.448 132.641L204.542 132.162C204.029 131.068 202.97 130.535 201.794 130.535C200.557 130.535 199.189 131.28 199.189 132.668C199.189 134.233 200.461 134.527 201.555 134.78C202.512 134.999 203.339 135.19 203.339 136.011C203.339 136.797 202.58 137.022 201.869 137.022C201.076 137.022 200.338 136.578 200.064 135.819L198.957 136.305Z" fill="black"/>
<defs>
<clipPath id="clip0_190_2415">
<rect width="17.1429" height="17.1429" fill="white" transform="translate(96.7144 93.7139)"/>
</clipPath>
<clipPath id="clip1_190_2415">
<rect width="17.1429" height="17.1429" fill="white" transform="translate(156.857 73.8574)"/>
</clipPath>
</defs>
</svg>
