<svg width="24" height="24" viewBox="0 0 24 24" fill="none" xmlns="http://www.w3.org/2000/svg">
<path d="M14.0497 6.0061C15.0264 6.19667 15.924 6.67436 16.6277 7.37804C17.3314 8.08172 17.8091 8.97937 17.9997 9.9561M14.0497 2.0061C16.0789 2.23154 17.9713 3.14028 19.4159 4.58311C20.8606 6.02594 21.7717 7.91711 21.9997 9.9461M10.2266 13.8692C9.02506 12.6676 8.07627 11.309 7.38028 9.85933C7.32041 9.73464 7.29048 9.6723 7.26748 9.59341C7.18576 9.31305 7.24446 8.96879 7.41447 8.73136C7.46231 8.66455 7.51947 8.6074 7.63378 8.49308C7.98338 8.14348 8.15819 7.96867 8.27247 7.7929C8.70347 7.13001 8.70347 6.27543 8.27247 5.61253C8.15819 5.43676 7.98338 5.26195 7.63378 4.91235L7.43891 4.71748C6.90747 4.18604 6.64174 3.92031 6.35636 3.77597C5.7888 3.4889 5.11854 3.4889 4.55098 3.77597C4.2656 3.92032 3.99987 4.18604 3.46843 4.71748L3.3108 4.87511C2.78117 5.40474 2.51636 5.66955 2.31411 6.02958C2.08969 6.42909 1.92833 7.04958 1.9297 7.5078C1.93092 7.92075 2.01103 8.20297 2.17124 8.76742C3.03221 11.8008 4.65668 14.6632 7.04466 17.0512C9.43264 19.4391 12.295 21.0636 15.3284 21.9246C15.8928 22.0848 16.1751 22.1649 16.588 22.1661C17.0462 22.1675 17.6667 22.0061 18.0662 21.7817C18.4263 21.5795 18.6911 21.3146 19.2207 20.785L19.3783 20.6274C19.9098 20.0959 20.1755 19.8302 20.3198 19.5448C20.6069 18.9773 20.6069 18.307 20.3198 17.7394C20.1755 17.4541 19.9098 17.1883 19.3783 16.6569L19.1835 16.462C18.8339 16.1124 18.6591 15.9376 18.4833 15.8233C17.8204 15.3923 16.9658 15.3923 16.3029 15.8233C16.1271 15.9376 15.9523 16.1124 15.6027 16.462C15.4884 16.5763 15.4313 16.6335 15.3644 16.6813C15.127 16.8514 14.7828 16.9101 14.5024 16.8283C14.4235 16.8053 14.3612 16.7754 14.2365 16.7155C12.7869 16.0195 11.4282 15.0708 10.2266 13.8692Z" stroke="white" stroke-width="1.5" stroke-linecap="round" stroke-linejoin="round"/>
</svg>
